<?xml version="1.0" encoding="UTF-8" standalone="no"?><!DOCTYPE svg PUBLIC "-//W3C//DTD SVG 1.1//EN" "http://www.w3.org/Graphics/SVG/1.1/DTD/svg11.dtd"><svg width="100%" height="100%" viewBox="0 0 748 833" version="1.1" xmlns="http://www.w3.org/2000/svg" xmlns:xlink="http://www.w3.org/1999/xlink" xml:space="preserve" xmlns:serif="http://www.serif.com/" style="fill-rule:evenodd;clip-rule:evenodd;stroke-linejoin:round;stroke-miterlimit:2;"><g><path d="M0,167.468c244.034,-27.415 492.941,-31.459 747.141,-11.436l-6.353,-49.555l-27.215,-4.825l-3.281,-47.272c-11.522,5.422 -290.504,-122.355 -659.466,-3.812c-3.812,33.037 -5.083,43.202 -5.083,43.202l-43.202,17.789l-2.541,55.909Z" style="fill:#fff;"/><path d="M44.228,178.907l646.018,-1.301l-70.262,635.609c0,0 -235.276,46.841 -509.398,-6.506c-21.049,-206.231 -60.083,-512.651 -60.083,-512.651l256.325,3.904c0,0 5.205,-25.372 35.131,-33.179c31.878,-0.651 218.771,-0.209 262.576,2.935c5.297,0.38 5.533,15.336 0.255,15.931c-28.366,3.198 -170.45,3.253 -170.45,3.253l-0.65,8.458c0,0 141.456,-3.354 169.799,-0.651c5.598,0.534 5.842,16.228 0.255,16.868c-28.408,3.253 -170.705,2.649 -170.705,2.649l0.666,11.315c0,0 142.571,-5.162 171.085,-3.253c4.892,0.328 4.867,14.119 0,14.708c-28.3,3.427 -169.799,5.855 -169.799,5.855l0.65,11.06c0,0 141.132,-5.25 169.149,-3.253c5.077,0.362 4.01,14.648 -1.046,15.234c-42.07,4.879 -251.376,14.042 -251.376,14.042c0,0 -31.878,-4.554 -41.636,-37.083c-45.541,-1.301 -186.715,0.651 -186.715,0.651l44.239,422.872c0,0 286.252,46.19 394.247,0.65c25.372,-145.728 70.262,-547.781 70.262,-547.781l-133.368,-6.506c0,0 -0.65,41.637 -35.131,39.685c-37.733,-2.602 -294.058,-3.904 -294.058,-3.904c0,0 -96.473,-1.301 -125.98,-69.611Z" style="fill:#fff;"/></g></svg>